# xmcd
#
# Track frame offsets:
#  150
#  5333
#  13492
#  25158
#  37334
#  50055
#  60499
#  68837
#  84949
#  100443
#  115400
#  127209
#  137859
#  154298
#  171373
#  188867
#
# Disc length: 2658 seconds
#
# Revision: 0
# Processed by: cddbd v1.5.1PL2 Copyright (c) Steve Scherf et al.
# Submitted via: Collectorz.com_Music_Collector 6.9
#
DISCID=ec0a6010
DTITLE=Cornell Hurd Band - Texas By Night
DYEAR=2006
DGENRE=Country
TTITLE0=Thanks For Tuning In
TTITLE1=Texas By Night
TTITLE2=You Only Kiss Me When We Say Goodbye
TTITLE3=Viva Las Vegas
TTITLE4=Addios To Mexico City
TTITLE5=Black Smoke A Blowin' Over 18 Wheels
TTITLE6=We're Not Married Anymore
TTITLE7=I Don't Know Why I Love You (But I Do )
TTITLE8=There Are Strange Things Happening Everyday
TTITLE9=Dim Lights,Thick Smoke And Loud, Loud Music
TTITLE10=The Rubboard Waltz
TTITLE11=Date With Del (Part 1)
TTITLE12=Party Of One
TTITLE13=Thers's Still A Lot Of Love In San Antone
TTITLE14=If You Play With My Mind (You're Gonna Get Your Hands Dirty)
TTITLE15=Texas By Night (Ride West)
EXTD=
EXTT0=
EXTT1=
EXTT2=
EXTT3=
EXTT4=
EXTT5=
EXTT6=
EXTT7=
EXTT8=
EXTT9=
EXTT10=
EXTT11=
EXTT12=
EXTT13=
EXTT14=
EXTT15=
PLAYORDER=
